<?xml version="1.0" encoding="UTF-8" standalone="no"?>
<svg
   width="16"
   height="16"
   viewBox="0 0 16 16"
   fill="none"
   version="1.1"
   id="svg1"
   sodipodi:docname="toolbarButton-close.svg"
   inkscape:version="1.3 (0e150ed6c4, 2023-07-21)"
   xmlns:inkscape="http://www.inkscape.org/namespaces/inkscape"
   xmlns:sodipodi="http://sodipodi.sourceforge.net/DTD/sodipodi-0.dtd"
   xmlns="http://www.w3.org/2000/svg"
   xmlns:svg="http://www.w3.org/2000/svg">
  <defs
     id="defs1" />
  <sodipodi:namedview
     id="namedview1"
     pagecolor="#ffffff"
     bordercolor="#000000"
     borderopacity="0.25"
     inkscape:showpageshadow="2"
     inkscape:pageopacity="0.0"
     inkscape:pagecheckerboard="0"
     inkscape:deskcolor="#d1d1d1"
     inkscape:zoom="22.627417"
     inkscape:cx="6.0325047"
     inkscape:cy="7.4025241"
     inkscape:window-width="1920"
     inkscape:window-height="1106"
     inkscape:window-x="-11"
     inkscape:window-y="-11"
     inkscape:window-maximized="1"
     inkscape:current-layer="svg1" />
  <path
     d="m 2.987185,13.818 5.46504,-5.46597 10e-4,-0.705 -5.46404,-5.465 C 2.870825,2.06965 2.713245,2.00795 2.550045,2.01006 c -0.1632,0.00212 -0.31912,0.06789 -0.43453,0.1833 -0.11541,0.11541 -0.18118,0.27133 -0.1833,0.43453 -0.00212,0.1632 0.05959,0.32078 0.17197,0.43914 l 4.93404,4.931 -4.93504,4.93397 c -0.11252,0.1183 -0.17441,0.2758 -0.17248,0.439 0.00193,0.1632 0.06753,0.3192 0.18281,0.4347 0.11528,0.1156 0.27113,0.1815 0.43433,0.1838 0.1632,0.0023 0.32085,-0.0592 0.43934,-0.1715 z"
     id="path15"
     style="display:inline;fill:#000000" />
  <path
     d="m 12.498264,13.818 -5.4650003,-5.46597 -0.001,-0.705 5.4640003,-5.465 c 0.11837,-0.11238 0.27594,-0.17408 0.43914,-0.17197 0.1632,0.00212 0.31912,0.06789 0.43453,0.1833 0.11541,0.11541 0.18118,0.27133 0.1833,0.43453 0.0021,0.1632 -0.05959,0.32078 -0.17197,0.43914 l -4.9340003,4.931 4.9350003,4.93397 c 0.11252,0.1183 0.17441,0.2758 0.17248,0.439 -0.0019,0.1632 -0.06753,0.3192 -0.18281,0.4347 -0.11528,0.1156 -0.27113,0.1815 -0.43433,0.1838 -0.1632,0.0023 -0.32085,-0.0592 -0.43934,-0.1715 z"
     id="path1"
     style="display:inline;fill:#000000;fill-opacity:1" />
</svg>
